<svg width="120" height="120" viewBox="0 0 120 120" fill="none" xmlns="http://www.w3.org/2000/svg">
<circle cx="59.1554" cy="60.4893" r="54.6841" fill="url(#paint0_linear_392_9930)"/>
<circle cx="59.1554" cy="60.4893" r="54.6841" fill="url(#paint1_linear_392_9930)"/>
<circle cx="59.1554" cy="60.4893" r="54.6841" stroke="#A65506" stroke-width="7.05601"/>
<g filter="url(#filter0_f_392_9930)">
<ellipse cx="61.9992" cy="61.4775" rx="40.6667" ry="42" fill="url(#paint2_linear_392_9930)"/>
</g>
<g filter="url(#filter1_f_392_9930)">
<ellipse cx="36.3358" cy="30.8271" rx="10.2962" ry="6.79586" transform="rotate(-33.4933 36.3358 30.8271)" fill="#FFC739"/>
</g>
<g style="mix-blend-mode:soft-light" opacity="0.8" filter="url(#filter2_f_392_9930)">
<path d="M87.0239 71.374C86.1985 74.0103 85.6666 76.3748 81.8444 80.6755C78.0222 84.9762 71.9991 87.5043 68.6477 88.4466" stroke="#28FFAD" stroke-width="16" stroke-linecap="round"/>
</g>
<g filter="url(#filter3_i_392_9930)">
<path d="M43.5474 39.6296C46.6514 36.912 51.5387 39.1193 51.5033 43.2226L51.4751 46.4692C53.1665 46.4981 55.0897 46.6744 57.2034 47.0982C65.4485 48.7514 69.3226 50.694 73.3257 53.1801C77.3287 55.6661 79.9757 57.9254 84.2801 63.0945C87.0891 66.4677 88.4926 70.0747 89.1287 72.1741C89.4593 73.2655 88.9895 74.4012 88.0497 75.0581L83.52 78.2234C82.2456 79.1139 80.4933 78.8797 79.4997 77.6889C78.2994 76.2501 76.6503 74.2806 75.092 72.4435C72.1678 68.9963 67.8747 66.2943 56.6325 65.6702C54.5592 65.5551 52.8023 65.5884 51.3077 65.6962L51.275 69.452C51.2393 73.5555 46.3145 75.6789 43.2581 72.9086L28.6509 59.6687C26.5532 57.7673 26.5816 54.4844 28.7119 52.619L43.5474 39.6296Z" fill="url(#paint3_linear_392_9930)"/>
</g>
<path d="M41.3527 37.1289C46.5199 32.6053 54.6412 36.1185 54.836 42.9129L54.8397 43.2392L54.8382 43.3581C55.8058 43.4682 56.8186 43.6216 57.8718 43.8327C66.5287 45.5684 70.7739 47.6661 75.0957 50.3501C79.4516 53.0554 82.3599 55.5682 86.8496 60.9598C90.0378 64.7884 91.6093 68.8465 92.3221 71.1994C93.1218 73.8391 91.9284 76.4056 89.9561 77.7841L85.4265 80.9494C82.7224 82.8389 79.0279 82.3366 76.9329 79.8256C75.7352 78.39 74.0926 76.4286 72.5428 74.6016C71.3703 73.2194 69.9791 72.0268 67.6872 71.0724C65.3146 70.0843 61.8399 69.2957 56.4351 68.9956C55.7944 68.9601 55.1884 68.9404 54.6153 68.9328L54.6116 69.4687C54.55 76.526 46.1432 80.0301 41.01 75.3775L26.4026 62.138C22.8429 58.9111 22.8763 53.3069 26.5172 50.1189L41.3525 37.1299L41.3527 37.1289Z" stroke="#794619" stroke-width="6.66667" stroke-linecap="round"/>
<defs>
<filter id="filter0_f_392_9930" x="13.1992" y="11.3442" width="97.5999" height="100.267" filterUnits="userSpaceOnUse" color-interpolation-filters="sRGB">
<feFlood flood-opacity="0" result="BackgroundImageFix"/>
<feBlend mode="normal" in="SourceGraphic" in2="BackgroundImageFix" result="shape"/>
<feGaussianBlur stdDeviation="4.06667" result="effect1_foregroundBlur_392_9930"/>
</filter>
<filter id="filter1_f_392_9930" x="25.2303" y="21.0687" width="22.2111" height="19.517" filterUnits="userSpaceOnUse" color-interpolation-filters="sRGB">
<feFlood flood-opacity="0" result="BackgroundImageFix"/>
<feBlend mode="normal" in="SourceGraphic" in2="BackgroundImageFix" result="shape"/>
<feGaussianBlur stdDeviation="0.866667" result="effect1_foregroundBlur_392_9930"/>
</filter>
<filter id="filter2_f_392_9930" x="55.9791" y="58.7052" width="43.7137" height="42.4102" filterUnits="userSpaceOnUse" color-interpolation-filters="sRGB">
<feFlood flood-opacity="0" result="BackgroundImageFix"/>
<feBlend mode="normal" in="SourceGraphic" in2="BackgroundImageFix" result="shape"/>
<feGaussianBlur stdDeviation="2.33333" result="effect1_foregroundBlur_392_9930"/>
</filter>
<filter id="filter3_i_392_9930" x="19.0898" y="31.7637" width="76.8238" height="56.3273" filterUnits="userSpaceOnUse" color-interpolation-filters="sRGB">
<feFlood flood-opacity="0" result="BackgroundImageFix"/>
<feBlend mode="normal" in="SourceGraphic" in2="BackgroundImageFix" result="shape"/>
<feColorMatrix in="SourceAlpha" type="matrix" values="0 0 0 0 0 0 0 0 0 0 0 0 0 0 0 0 0 0 127 0" result="hardAlpha"/>
<feOffset dx="-1.33333" dy="2.66667"/>
<feGaussianBlur stdDeviation="2.33333"/>
<feComposite in2="hardAlpha" operator="arithmetic" k2="-1" k3="1"/>
<feColorMatrix type="matrix" values="0 0 0 0 0.905769 0 0 0 0 0.843534 0 0 0 0 0.782097 0 0 0 1 0"/>
<feBlend mode="normal" in2="shape" result="effect1_innerShadow_392_9930"/>
</filter>
<linearGradient id="paint0_linear_392_9930" x1="64.4474" y1="2.27724" x2="59.1554" y2="133.695" gradientUnits="userSpaceOnUse">
<stop offset="0.0311504" stop-color="#FFF1CD"/>
<stop offset="0.22126" stop-color="#FDD776"/>
<stop offset="1" stop-color="#D5802C"/>
</linearGradient>
<linearGradient id="paint1_linear_392_9930" x1="31.7731" y1="16.338" x2="81.231" y2="111.645" gradientUnits="userSpaceOnUse">
<stop stop-color="#EE6306"/>
<stop offset="0.460543" stop-color="#FF9D3C"/>
<stop offset="0.772863" stop-color="#FFBE3C"/>
<stop offset="0.923995" stop-color="#FFD88B"/>
</linearGradient>
<linearGradient id="paint2_linear_392_9930" x1="47.4206" y1="22.5887" x2="73.3499" y2="90.8017" gradientUnits="userSpaceOnUse">
<stop offset="0.439596" stop-color="#F26B11"/>
<stop offset="1" stop-color="#FD932A"/>
</linearGradient>
<linearGradient id="paint3_linear_392_9930" x1="63.3285" y1="42.0877" x2="55.5482" y2="76.3456" gradientUnits="userSpaceOnUse">
<stop stop-color="#F0E8E8"/>
<stop offset="1" stop-color="#FFF5F5"/>
</linearGradient>
</defs>
</svg>
