<svg width="31" height="31" viewBox="0 0 31 31" fill="none" xmlns="http://www.w3.org/2000/svg">
<path d="M15.439 2.51343C10.4638 2.51343 6.43066 6.54659 6.43066 11.5218C6.43066 13.1149 6.86048 14.6322 7.63777 15.986C7.65192 16.0118 10.0752 19.8197 10.2914 20.5301H20.5866C20.799 19.8236 23.2145 16.0427 23.2003 16.0658C24.0021 14.6978 24.4473 13.1407 24.4473 11.5218C24.4473 6.54659 20.4142 2.51343 15.439 2.51343ZM15.439 7.66105C16.1494 7.66105 16.7259 8.23758 16.7259 8.94795C16.7259 9.65832 16.1494 10.2349 15.439 10.2349C14.7286 10.2349 14.1521 10.8114 14.1521 11.5218C14.1521 12.2321 13.5756 12.8087 12.8652 12.8087C12.1548 12.8087 11.5783 12.2321 11.5783 11.5218C11.5783 9.38936 13.3066 7.66105 15.439 7.66105ZM10.2914 23.1039C10.2914 25.9467 12.5962 28.2515 15.439 28.2515C18.2818 28.2515 20.5866 25.9467 20.5866 23.1039H10.2914Z" fill="#714821"/>
</svg>
