<svg width="24" height="24" viewBox="0 0 24 24" fill="none" xmlns="http://www.w3.org/2000/svg">
<path d="M11.7354 0C13.3536 0 14.666 1.0073 15.0791 2.49414C16.1246 2.71366 17.0936 3.73794 17.3799 4.71777L18.7764 4.69434C21.3687 4.69434 23.4707 6.79638 23.4707 9.38867V18.7764C23.4707 21.3687 21.3687 23.4707 18.7764 23.4707H4.69434C2.10214 23.4706 9.06345e-06 21.3686 0 18.7764V9.38867C0 6.79645 2.10213 4.69445 4.69434 4.69434C4.89618 4.69434 5.44716 4.70703 6.08203 4.70703C6.42354 3.69324 7.32189 2.82095 8.38379 2.52637C8.79575 1.03975 10.1173 0.00012328 11.7354 0ZM19.8672 8.49707C19.5108 8.29565 19.0579 8.42197 18.8564 8.77832L14.6318 16.252L12.3369 12.8076C12.2043 12.6086 11.9831 12.4864 11.7441 12.4785C11.505 12.4708 11.2762 12.5785 11.1309 12.7686L6.72266 18.5322L4.33008 17.0371C3.983 16.8204 3.52547 16.9264 3.30859 17.2734C3.09202 17.6205 3.19796 18.0781 3.54492 18.2949L6.50977 20.1475C6.83388 20.3497 7.25908 20.2722 7.49121 19.9688L11.6777 14.4922L14.0674 18.0771C14.2102 18.2913 14.4547 18.4157 14.7119 18.4062C14.969 18.3967 15.2034 18.2543 15.3301 18.0303L20.1475 9.50684C20.3485 9.15069 20.2231 8.69853 19.8672 8.49707ZM11.7354 2.34668C11.0878 2.34684 10.5626 2.8729 10.5625 3.52051C10.5625 4.12773 10.1002 4.62825 9.50879 4.68848L9.26855 4.7002C8.6771 4.76038 8.21484 5.26091 8.21484 5.86816C8.2151 6.51573 8.74105 7.04102 9.38867 7.04102H14.083C14.7305 7.04083 15.2556 6.51562 15.2559 5.86816C15.2559 5.2205 14.7306 4.69452 14.083 4.69434C13.4757 4.69434 12.9752 4.23213 12.915 3.64062L12.9033 3.40039C12.843 2.80903 12.3425 2.34668 11.7354 2.34668Z" fill="#714821"/>
</svg>
